#N canvas 68 660 850 457 12;
#X obj 218 275 goat~;
#X obj 17 407 dac~;
#X obj 17 148 readsf~;
#X msg 30 112 1;
#X obj 19 22 bng 15 250 50 0 empty empty empty 17 7 0 10 -262144 -1
-1;
#X obj 19 50 t b b;
#X msg 63 112 0;
#X msg 17 78 open Radiohead-reconer_piano.wav;
#X obj 43 381 r~ wet;
#X obj 17 357 r~ dry;
#X obj 16 178 s~ dry;
#X obj 219 250 r~ dry;
#X obj 218 300 s~ wet;
#X obj 169 198 r cmd;
#X obj 199 223 print command;
#X obj 389 336 hsl 128 15 128 4096 0 0 empty empty grainsize -2 -8
0 10 -262144 -1 -1 0 1;
#X obj 388 29 loadbang;
#X text 399 53 connect the first lfo to the grainsize parameter;
#X obj 388 132 s cmd;
#X text 399 70 and set its amount to 500;
#X msg 388 92 param-attach grainsize 0 lfo1 \, param-amount grainsize
0 500;
#X text 568 165 debug print all parameters;
#X text 381 294 change the grainsize.;
#X msg 386 358 param-set grainsize \$1;
#X obj 386 383 s cmd;
#X msg 567 187 param-post;
#X obj 567 212 s cmd;
#X connect 0 0 12 0;
#X connect 2 0 10 0;
#X connect 2 1 4 0;
#X connect 3 0 2 0;
#X connect 4 0 5 0;
#X connect 5 0 3 0;
#X connect 5 1 7 0;
#X connect 6 0 2 0;
#X connect 7 0 2 0;
#X connect 8 0 1 1;
#X connect 9 0 1 0;
#X connect 11 0 0 0;
#X connect 13 0 0 0;
#X connect 13 0 14 0;
#X connect 15 0 23 0;
#X connect 16 0 20 0;
#X connect 20 0 18 0;
#X connect 23 0 24 0;
#X connect 25 0 26 0;
