#N canvas 45 593 933 582 12;
#X obj 251 255 goat~;
#X obj 19 368 dac~;
#X obj 19 180 readsf~;
#X msg 32 144 1;
#X obj 21 54 bng 15 250 50 0 empty empty empty 17 7 0 10 -262144 -1
-1;
#X obj 21 82 t b b;
#X msg 65 144 0;
#X msg 19 110 open Radiohead-reconer_piano.wav;
#X obj 21 27 loadbang;
#X obj 45 342 r~ wet;
#X obj 19 318 r~ dry;
#X obj 18 210 s~ dry;
#X obj 252 230 r~ dry;
#X obj 251 280 s~ wet;
#X obj 202 178 r cmd;
#X obj 421 22 loadbang;
#X obj 232 203 print command;
#X msg 421 47 \; cmd param-attach grainsize 0 lfo1;
#X msg 420 299 \; cmd param-offset grainsize \$1;
#X obj 423 277 hsl 128 15 128 4096 0 0 empty empty grainsize -2 -8
0 10 -262144 -1 -1 2100 1;
#X connect 0 0 13 0;
#X connect 2 0 11 0;
#X connect 3 0 2 0;
#X connect 4 0 5 0;
#X connect 5 0 3 0;
#X connect 5 1 7 0;
#X connect 6 0 2 0;
#X connect 7 0 2 0;
#X connect 8 0 4 0;
#X connect 9 0 1 1;
#X connect 10 0 1 0;
#X connect 12 0 0 0;
#X connect 14 0 0 0;
#X connect 14 0 16 0;
#X connect 15 0 17 0;
#X connect 19 0 18 0;
