#N canvas 8 531 999 558 12;
#X obj 42 248 goat~;
#X obj 17 314 dac~;
#X obj 17 204 readsf~;
#X msg 30 168 1;
#X obj 19 78 bng 15 250 50 0 empty empty empty 17 7 0 10 -262144 -1
-1;
#X obj 19 106 t b b;
#X msg 63 168 0;
#X obj 90 206 r cmd;
#X obj 19 17 loadbang;
#X msg 54 45 \; pd dsp 1;
#X obj 42 274 *~ 0.5;
#X obj 362 189 textfile;
#X msg 362 64 read presets/\$1.txt;
#X msg 407 163 rewind;
#X obj 362 163 until;
#X obj 408 241 s cmd;
#X obj 362 213 route #;
#X msg 464 163 param-reset;
#X obj 362 39 r presetid;
#N canvas 372 177 621 594 gui 1;
#X obj 25 153 hsl 128 15 0 1 0 0 grainsize grainsize_d Grain_Size -2
-8 0 10 -261682 -1 -1 635 1;
#X obj 24 190 hsl 128 15 -1 1 0 0 graindist graindist_d Grain_Distance
-2 -8 0 10 -261682 -1 -1 1587 1;
#X obj 24 227 hsl 128 15 0 1 0 0 graindelay graindelay_d Grain_Delay
-2 -8 0 10 -261682 -1 -1 0 1;
#X obj 24 263 hsl 128 15 -36 36 0 0 grainpitch grainpitch_d Grain_Pitch
-2 -8 0 10 -261682 -1 -1 6350 1;
#X obj 21 331 hradio 15 1 0 4 grainenv grainenv_d Grain_Envelope 0
-8 0 10 -261682 -1 -1 2;
#X obj 71 65 hradio 15 1 0 4 presetid empty Load_Preset 0 -8 0 10 -261234
-1 -1 0;
#X text 20 112 GRANULAR ENGINE;
#X obj 22 65 bng 15 250 50 1 param-reset empty Reset 0 -8 0 10 -261234
-1 -1;
#X text 19 13 GOAT;
#X text 208 114 LFO 1;
#X obj 213 152 hsl 128 15 0 50 0 0 lfo1.frequency lfo1.frequency_d
Frequency -2 -8 0 10 -204786 -1 -1 254 1;
#X obj 406 153 hsl 128 15 0 50 0 0 rand1.frequency rand1.frequency_d
Interval -2 -8 0 10 -204800 -1 -1 254 1;
#X text 401 114 RAND 1;
#X obj 406 189 hsl 128 15 0.01 20000 0 0 rand1.value rand1.value_d
Value -2 -8 0 10 -204800 -1 -1 63 1;
#X obj 406 225 hsl 128 15 0 10000 0 0 rand1.variation rand1.variation_d
Variation -2 -8 0 10 -204800 -1 -1 6 1;
#X obj 257 116 bng 15 250 50 0 lfo1_src empty empty 17 7 0 10 -204786
-1 -1;
#X obj 161 146 vsl 15 20 0 1 0 0 grainsize_dst empty empty 0 -9 0 10
-261682 -1 -1 0 1;
#X obj 160 183 vsl 15 20 0 1 0 0 graindist_dst empty empty 0 -9 0 10
-261682 -1 -1 0 1;
#X obj 160 220 vsl 15 20 0 1 0 0 graindelay_dst empty empty 0 -9 0
10 -261682 -1 -1 0 1;
#X obj 160 255 vsl 15 20 0 1 0 0 grainpitch_dst empty empty 0 -9 0
10 -261682 -1 -1 0 1;
#X obj 350 532 vsl 15 20 0 1 0 0 empty empty empty 0 -9 0 10 -261682
-1 -1 0 1;
#X obj 321 512 bng 15 250 50 0 empty empty empty 17 7 0 10 -204786
-1 -1;
#X text 23 511 to connect a modulator \, press its button \,;
#X obj 258 64 bng 15 250 50 0 global_detach empty Detach 0 -7 0 10
-261234 -1 -1;
#X obj 457 117 bng 15 250 50 0 rand1_src empty empty 17 7 0 10 -204800
-1 -1;
#X obj 349 144 vsl 15 20 0 1 0 0 lfo1.frequency_dst empty empty 0 -9
0 10 -204786 -1 -1 0 1;
#X obj 542 146 vsl 15 20 0 1 0 0 rand1.frequency_dst empty empty 0
-9 0 10 -204800 -1 -1 0 1;
#X obj 542 182 vsl 15 20 0 1 0 0 rand1.value_dst empty empty 0 -9 0
10 -204800 -1 -1 0 1;
#X obj 542 217 vsl 15 20 0 1 0 0 rand1.variation_dst empty empty 0
-9 0 10 -204800 -1 -1 0 1;
#X text 24 532 then click the amount slider at the parameter;
#X text 399 288 PITCH DETECTOR;
#X obj 510 289 bng 15 250 50 0 vodec_src empty empty 17 7 0 10 -262130
-1 -1;
#X obj 21 297 tgl 15 0 relativepitch relativepitch_d Use_Relative_Pitch
0 -7 0 10 -261682 -1 -1 0 1;
#X restore 19 486 pd gui;
#N canvas 207 754 327 221 cmdreceivers 1;
#N canvas 8 63 580 549 granular_engine 0;
#X obj 72 25 r grainsize;
#X obj 72 80 r graindist;
#X obj 72 135 r graindelay;
#X obj 72 185 r grainpitch;
#X obj 71 294 r grainenv;
#X obj 174 26 r grainsize_dst;
#X obj 141 361 s conn_dst;
#X msg 174 51 grainsize \$1;
#X obj 175 80 r graindist_dst;
#X msg 175 105 graindist \$1;
#X obj 177 134 r graindelay_dst;
#X msg 177 159 graindelay \$1;
#X obj 177 183 r grainpitch_dst;
#X msg 177 208 grainpitch \$1;
#X obj 174 294 r grainenv_dst;
#X msg 174 319 grainenv \$1;
#X msg 71 320 grainenv \$1;
#X msg 72 210 grainpitch \$1;
#X msg 73 160 graindelay \$1;
#X msg 72 108 graindist \$1;
#X msg 72 50 grainsize \$1;
#X obj 28 362 s param_set;
#X msg 181 263 relativepitch \$1;
#X obj 180 238 r relativepitch_dst;
#X obj 55 240 r relativepitch;
#X msg 60 265 relativepitch \$1;
#X connect 0 0 20 0;
#X connect 1 0 19 0;
#X connect 2 0 18 0;
#X connect 3 0 17 0;
#X connect 4 0 16 0;
#X connect 5 0 7 0;
#X connect 7 0 6 0;
#X connect 8 0 9 0;
#X connect 9 0 6 0;
#X connect 10 0 11 0;
#X connect 11 0 6 0;
#X connect 12 0 13 0;
#X connect 13 0 6 0;
#X connect 14 0 15 0;
#X connect 15 0 6 0;
#X connect 16 0 21 0;
#X connect 17 0 21 0;
#X connect 18 0 21 0;
#X connect 19 0 21 0;
#X connect 20 0 21 0;
#X connect 22 0 6 0;
#X connect 23 0 22 0;
#X connect 24 0 25 0;
#X connect 25 0 21 0;
#X restore 28 29 pd granular_engine;
#N canvas 8 63 499 445 lfos 0;
#X obj 183 83 r lfo1.frequency;
#X msg 137 56 lfo1;
#X obj 38 352 s conn_src;
#X obj 137 31 r lfo1_src;
#X msg 183 108 lfo1.frequency \$1;
#X obj 117 351 s param_set;
#X obj 203 352 s conn_dst;
#X msg 320 106 lfo1.frequency \$1;
#X obj 320 81 r lfo1.frequency_dst;
#X connect 0 0 4 0;
#X connect 1 0 2 0;
#X connect 3 0 1 0;
#X connect 4 0 5 0;
#X connect 7 0 6 0;
#X connect 8 0 7 0;
#X restore 27 69 pd lfos;
#N canvas 486 324 526 435 rands 0;
#X obj 146 81 r rand1.frequency;
#X obj 146 134 r rand1.value;
#X obj 147 187 r rand1.variation;
#X obj 20 31 r rand1_src;
#X msg 147 212 rand1.variation \$1;
#X msg 146 159 rand1.value \$1;
#X msg 146 106 rand1.frequency \$1;
#X obj 20 356 s conn_src;
#X obj 101 356 s param_set;
#X obj 326 79 r rand1.frequency_dst;
#X msg 326 104 rand1.frequency \$1;
#X obj 326 130 r rand1.value_dst;
#X msg 326 155 rand1.value \$1;
#X obj 326 185 r rand1.variation_dst;
#X msg 326 210 rand1.variation \$1;
#X obj 197 355 s conn_dst;
#X msg 20 56 rand1;
#X connect 0 0 6 0;
#X connect 1 0 5 0;
#X connect 2 0 4 0;
#X connect 3 0 16 0;
#X connect 4 0 8 0;
#X connect 5 0 8 0;
#X connect 6 0 8 0;
#X connect 9 0 10 0;
#X connect 10 0 15 0;
#X connect 11 0 12 0;
#X connect 12 0 15 0;
#X connect 13 0 14 0;
#X connect 14 0 15 0;
#X connect 16 0 7 0;
#X restore 27 108 pd rands;
#N canvas 26 130 450 300 vodec 0;
#X obj 18 14 r vodec_src;
#X msg 18 39 vodec;
#X obj 18 241 s conn_src;
#X connect 0 0 1 0;
#X connect 1 0 2 0;
#X restore 26 150 pd vodec;
#X restore 19 515 pd cmdreceivers;
#X msg 243 490 param-post;
#X obj 243 515 s cmd;
#X obj 116 274 route param-get;
#X obj 116 351 unpack s f;
#X obj 116 376 t b s;
#X obj 116 401 f;
#X obj 116 426 s;
#X msg 148 401 symbol \$1_d;
#X obj 362 88 t b b b a b;
#X msg 285 163 param-get;
#X obj 364 332 r param-reset;
#X msg 401 383 param-reset;
#X obj 364 409 s cmd;
#X obj 364 357 t b b;
#X msg 321 382 param-get;
#X text 122 329 handle param-get;
#X text 241 467 debug print all parameters;
#X text 339 310 handle param-reset;
#X obj 757 142 r conn_src;
#X obj 658 142 r conn_dst;
#X text 650 120 handle connections;
#X text 342 17 load preset files;
#X obj 704 286 pack s s;
#X obj 757 169 symbol;
#X msg 704 311 param-attach \$1 0 \$2;
#X msg 771 197 1;
#X msg 718 221 0;
#X obj 658 168 unpack s f;
#X obj 704 248 spigot;
#X msg 640 338 param-amount \$1 0 \$2;
#X obj 640 286 pack s f;
#X obj 658 194 t s b s;
#X obj 704 387 s cmd;
#X obj 849 142 r global_detach;
#X obj 810 248 spigot;
#X msg 849 168 1;
#X msg 810 281 param-detach \$1 0;
#X text 518 410 handle param-set;
#X obj 519 457 list;
#X obj 519 507 s cmd;
#X obj 519 432 r param_set;
#X msg 519 482 param-set \$1 \$2;
#X obj 90 231 print cmd;
#X msg 17 134 open dsmn.wav;
#X connect 0 0 10 0;
#X connect 0 1 23 0;
#X connect 2 0 0 0;
#X connect 2 1 4 0;
#X connect 3 0 2 0;
#X connect 4 0 5 0;
#X connect 5 0 3 0;
#X connect 5 1 64 0;
#X connect 6 0 2 0;
#X connect 7 0 0 0;
#X connect 7 0 63 0;
#X connect 8 0 4 0;
#X connect 8 0 9 0;
#X connect 10 0 1 1;
#X connect 10 0 1 0;
#X connect 11 0 16 0;
#X connect 11 1 14 1;
#X connect 12 0 29 0;
#X connect 13 0 11 0;
#X connect 14 0 11 0;
#X connect 16 1 15 0;
#X connect 17 0 15 0;
#X connect 18 0 12 0;
#X connect 21 0 22 0;
#X connect 23 0 24 0;
#X connect 24 0 25 0;
#X connect 24 1 26 1;
#X connect 25 0 26 0;
#X connect 25 1 28 0;
#X connect 26 0 27 0;
#X connect 28 0 27 1;
#X connect 29 0 30 0;
#X connect 29 1 14 0;
#X connect 29 2 13 0;
#X connect 29 3 11 0;
#X connect 29 4 17 0;
#X connect 30 0 15 0;
#X connect 31 0 34 0;
#X connect 32 0 33 0;
#X connect 34 0 35 0;
#X connect 34 1 32 0;
#X connect 35 0 33 0;
#X connect 39 0 44 0;
#X connect 40 0 48 0;
#X connect 43 0 45 0;
#X connect 44 0 43 1;
#X connect 44 0 46 0;
#X connect 45 0 53 0;
#X connect 46 0 49 1;
#X connect 47 0 49 1;
#X connect 47 0 55 1;
#X connect 48 0 52 0;
#X connect 48 1 51 1;
#X connect 49 0 43 0;
#X connect 50 0 53 0;
#X connect 51 0 50 0;
#X connect 52 0 51 0;
#X connect 52 1 47 0;
#X connect 52 2 49 0;
#X connect 52 2 55 0;
#X connect 54 0 56 0;
#X connect 55 0 57 0;
#X connect 56 0 55 1;
#X connect 57 0 53 0;
#X connect 59 0 62 0;
#X connect 61 0 59 0;
#X connect 62 0 60 0;
#X connect 64 0 2 0;
